<?xml version="1.0" encoding="utf-8"?>
<!-- Generator: Adobe Illustrator 22.0.1, SVG Export Plug-In . SVG Version: 6.00 Build 0)  -->
<svg version="1.1" id="Camada_1" xmlns="http://www.w3.org/2000/svg" xmlns:xlink="http://www.w3.org/1999/xlink" x="0px" y="0px"
	 viewBox="0 0 318 132" style="enable-background:new 0 0 318 132;" xml:space="preserve">
<style type="text/css">
	.st0{fill:#EDEDED;stroke:#4ACEA9;stroke-miterlimit:10;}
</style>
<title>Group 3</title>
<desc>Created with Sketch.</desc>
<g>
	<path class="st0" d="M35.3,81.8c-2.4,0-4.8-0.5-7.1-1.4s-4.4-2.3-6.2-4.1c-1.8-1.8-3.1-3.9-4.1-6.1c-0.9-2.3-1.4-4.7-1.4-7.2
		c0-2.6,0.5-5,1.4-7.3c0.9-2.3,2.3-4.3,4.1-6.1c1.8-1.8,3.9-3.2,6.3-4.2c2.3-0.9,4.7-1.4,7.1-1.4s4.8,0.5,7.1,1.4
		c2.3,0.9,4.4,2.3,6.2,4.2l-6.1,6.1c-1-1-2.1-1.7-3.4-2.2c-1.3-0.5-2.6-0.7-3.9-0.7c-1.3,0-2.6,0.2-3.8,0.7
		c-1.3,0.5-2.4,1.2-3.4,2.2c-1,1-1.7,2.1-2.2,3.3c-0.5,1.2-0.8,2.5-0.8,3.9c0,1.4,0.3,2.7,0.8,3.9c0.5,1.2,1.3,2.3,2.2,3.3
		c1,1,2.1,1.7,3.4,2.2c1.3,0.5,2.5,0.7,3.8,0.7c1.3,0,2.6-0.2,3.9-0.7c1.3-0.5,2.4-1.2,3.4-2.2l6.1,6.2c-1.8,1.8-3.9,3.2-6.2,4.1
		S37.8,81.8,35.3,81.8z"/>
	<path class="st0" d="M62.6,72.1c-0.4,0.1-0.9,0.1-1.3,0.2c-0.4,0-0.9,0.1-1.4,0.1v9.5h-8.7V44.4h8.7c2.2,0,4.2,0.4,6.1,1.2
		c1.9,0.8,3.5,1.8,5,3c1.4,1.3,2.5,2.7,3.3,4.4s1.2,3.5,1.2,5.4c0,2-0.4,3.9-1.3,5.6c-0.9,1.7-2.1,3.2-3.6,4.5l8.3,13.4H68.7
		L62.6,72.1z M59.9,63.7c0.9,0,1.8-0.2,2.6-0.5c0.8-0.3,1.6-0.7,2.2-1.2c0.6-0.5,1.1-1,1.5-1.7c0.4-0.6,0.5-1.3,0.5-2
		c0-0.7-0.2-1.4-0.5-2c-0.4-0.6-0.9-1.2-1.5-1.6c-0.6-0.5-1.4-0.9-2.2-1.2c-0.8-0.3-1.7-0.5-2.6-0.5V63.7z"/>
	<path class="st0" d="M91.4,81.9h-8.7V44.1h8.7V81.9z"/>
	<path class="st0" d="M118.1,81.9l-1.5-4.6h-11.9l-1.5,4.6H94l12.8-37.7h8.2l12.2,37.7H118.1z M107.7,68.6h6.1l-3-9.1L107.7,68.6z"
		/>
	<path class="st0" d="M141.2,72.1c-0.4,0.1-0.9,0.1-1.3,0.2c-0.4,0-0.9,0.1-1.4,0.1v9.5h-8.7V44.4h8.7c2.2,0,4.2,0.4,6.1,1.2
		c1.9,0.8,3.5,1.8,5,3c1.4,1.3,2.5,2.7,3.3,4.4c0.8,1.7,1.2,3.5,1.2,5.4c0,2-0.4,3.9-1.3,5.6c-0.9,1.7-2.1,3.2-3.6,4.5l8.3,13.4
		h-10.2L141.2,72.1z M138.5,63.7c0.9,0,1.8-0.2,2.6-0.5c0.8-0.3,1.6-0.7,2.2-1.2c0.6-0.5,1.1-1,1.5-1.7c0.4-0.6,0.5-1.3,0.5-2
		c0-0.7-0.2-1.4-0.5-2c-0.4-0.6-0.9-1.2-1.5-1.6c-0.6-0.5-1.4-0.9-2.2-1.2c-0.8-0.3-1.7-0.5-2.6-0.5V63.7z"/>
	<path class="st0" d="M195.2,44.1h8.9l2.2,37.8h-8.7l-0.9-15.4l-5.2,15.4h-8.7l-5.5-16l-1,16h-8.7l2.4-37.8h8.9l8.3,23.6L195.2,44.1
		z"/>
	<path class="st0" d="M232.6,52.9h-15.5v5.7h12.6v8.7h-12.6v6h15.5v8.7h-24.2V44.2l24.2-0.1V52.9z"/>
	<path class="st0" d="M262.2,44.1h8.9l2.2,37.8h-8.7l-0.9-15.4l-5.2,15.4h-8.7l-5.5-16l-1,16h-8.7l2.4-37.8h8.9l8.3,23.6L262.2,44.1
		z"/>
	<path class="st0" d="M299.6,52.9h-15.5v5.7h12.6v8.7h-12.6v6h15.5v8.7h-24.2V44.2l24.2-0.1V52.9z"/>
</g>
<text transform="matrix(1 0 0 1 223.4695 446.8965)" style="fill:#EDEDED; font-family:'TheBoldFont'; font-size:51.3629px;">Criar Meme</text>
</svg>
